<svg width="170" height="40" viewBox="0 0 182 35" fill="none" xmlns="http://www.w3.org/2000/svg">
<path d="M1 5C1 2.79086 2.79086 1 5 1H177C179.209 1 181 2.79086 181 5V30C181 32.2091 179.209 34 177 34H5C2.79086 34 1 32.2091 1 30V5Z" fill="#F2DEDE" stroke="#EBCCCC"/>
<path d="M10.8733 11.6016C9.61808 11.6016 8.6259 12.0208 7.89673 12.8594C7.17277 13.6927 6.81079 14.8359 6.81079 16.2891C6.81079 17.7839 7.15975 18.9401 7.85767 19.7578C8.56079 20.5703 9.56079 20.9766 10.8577 20.9766C11.6545 20.9766 12.5634 20.8333 13.5842 20.5469V21.7109C12.7926 22.0078 11.816 22.1562 10.6545 22.1562C8.97225 22.1562 7.67277 21.6458 6.7561 20.625C5.84465 19.6042 5.38892 18.1536 5.38892 16.2734C5.38892 15.0964 5.60767 14.0651 6.04517 13.1797C6.48787 12.2943 7.12329 11.612 7.95142 11.1328C8.78475 10.6536 9.76392 10.4141 10.8889 10.4141C12.0868 10.4141 13.1337 10.6328 14.0295 11.0703L13.467 12.2109C12.6025 11.8047 11.7379 11.6016 10.8733 11.6016ZM21.1467 22L20.8889 20.7812H20.8264C20.3993 21.3177 19.9722 21.6823 19.5452 21.875C19.1233 22.0625 18.5946 22.1562 17.9592 22.1562C17.1103 22.1562 16.4436 21.9375 15.9592 21.5C15.4801 21.0625 15.2405 20.4401 15.2405 19.6328C15.2405 17.9036 16.6233 16.9974 19.3889 16.9141L20.842 16.8672V16.3359C20.842 15.6641 20.6962 15.1693 20.4045 14.8516C20.1181 14.5286 19.6571 14.3672 19.0217 14.3672C18.3082 14.3672 17.5009 14.5859 16.5999 15.0234L16.2014 14.0312C16.6233 13.8021 17.0842 13.6224 17.5842 13.4922C18.0894 13.362 18.5946 13.2969 19.0999 13.2969C20.1207 13.2969 20.8759 13.5234 21.3655 13.9766C21.8603 14.4297 22.1077 15.1562 22.1077 16.1562V22H21.1467ZM18.217 21.0859C19.0243 21.0859 19.6571 20.8646 20.1155 20.4219C20.579 19.9792 20.8108 19.3594 20.8108 18.5625V17.7891L19.5139 17.8438C18.4827 17.8802 17.7379 18.0417 17.2795 18.3281C16.8264 18.6094 16.5999 19.0495 16.5999 19.6484C16.5999 20.1172 16.7405 20.474 17.0217 20.7188C17.3082 20.9635 17.7066 21.0859 18.217 21.0859ZM30.6467 22V16.4609C30.6467 15.763 30.4879 15.2422 30.1702 14.8984C29.8525 14.5547 29.3551 14.3828 28.678 14.3828C27.7821 14.3828 27.1259 14.625 26.7092 15.1094C26.2926 15.5938 26.0842 16.3932 26.0842 17.5078V22H24.7874V13.4375H25.842L26.053 14.6094H26.1155C26.3811 14.1875 26.7535 13.862 27.2327 13.6328C27.7118 13.3984 28.2457 13.2812 28.8342 13.2812C29.8655 13.2812 30.6415 13.5312 31.1624 14.0312C31.6832 14.526 31.9436 15.3203 31.9436 16.4141V22H30.6467ZM35.6545 10.5781L35.7717 10.75C35.6363 11.2708 35.441 11.8776 35.1858 12.5703C34.9306 13.2578 34.665 13.8984 34.3889 14.4922H33.4358C33.8004 13.0078 34.066 11.7031 34.2327 10.5781H35.6545ZM40.0999 21.0859C40.329 21.0859 40.5504 21.0703 40.7639 21.0391C40.9775 21.0026 41.1467 20.9661 41.2717 20.9297V21.9219C41.1311 21.9896 40.9228 22.0443 40.6467 22.0859C40.3759 22.1328 40.1311 22.1562 39.9124 22.1562C38.2561 22.1562 37.428 21.2839 37.428 19.5391V14.4453H36.2014V13.8203L37.428 13.2812L37.9749 11.4531H38.7249V13.4375H41.2092V14.4453H38.7249V19.4844C38.7249 20 38.8472 20.3958 39.092 20.6719C39.3368 20.9479 39.6728 21.0859 40.0999 21.0859ZM51.1311 13.2969C52.2561 13.2969 53.1285 13.6823 53.7483 14.4531C54.3733 15.2188 54.6858 16.3047 54.6858 17.7109C54.6858 19.1172 54.3707 20.2109 53.7405 20.9922C53.1155 21.7682 52.2457 22.1562 51.1311 22.1562C50.5738 22.1562 50.0634 22.0547 49.5999 21.8516C49.1415 21.6432 48.7561 21.3255 48.4436 20.8984H48.3499L48.0764 22H47.1467V9.84375H48.4436V12.7969C48.4436 13.4583 48.4228 14.0521 48.3811 14.5781H48.4436C49.0478 13.724 49.9436 13.2969 51.1311 13.2969ZM50.9436 14.3828C50.0582 14.3828 49.4202 14.638 49.0295 15.1484C48.6389 15.6536 48.4436 16.5078 48.4436 17.7109C48.4436 18.9141 48.6441 19.776 49.0452 20.2969C49.4462 20.8125 50.0894 21.0703 50.9749 21.0703C51.7717 21.0703 52.3655 20.7812 52.7561 20.2031C53.1467 19.6198 53.342 18.7839 53.342 17.6953C53.342 16.5807 53.1467 15.75 52.7561 15.2031C52.3655 14.6562 51.7613 14.3828 50.9436 14.3828ZM60.5764 22.1562C59.3108 22.1562 58.3108 21.7708 57.5764 21C56.8472 20.2292 56.4827 19.1589 56.4827 17.7891C56.4827 16.4089 56.8212 15.3125 57.4983 14.5C58.1806 13.6875 59.0946 13.2812 60.2405 13.2812C61.3134 13.2812 62.1624 13.6354 62.7874 14.3438C63.4124 15.0469 63.7249 15.9766 63.7249 17.1328V17.9531H57.8264C57.8525 18.9583 58.1051 19.7214 58.5842 20.2422C59.0686 20.763 59.7483 21.0234 60.6233 21.0234C61.5452 21.0234 62.4566 20.8307 63.3577 20.4453V21.6016C62.8993 21.7995 62.4644 21.9401 62.053 22.0234C61.6467 22.112 61.1545 22.1562 60.5764 22.1562ZM60.2249 14.3672C59.5374 14.3672 58.9879 14.5911 58.5764 15.0391C58.1702 15.487 57.9306 16.1068 57.8577 16.8984H62.3342C62.3342 16.0807 62.1519 15.4557 61.7874 15.0234C61.4228 14.5859 60.9019 14.3672 60.2249 14.3672ZM71.3967 22H70.0999V9.84375H71.3967V22ZM79.4124 22L79.1545 20.7812H79.092C78.665 21.3177 78.2379 21.6823 77.8108 21.875C77.3889 22.0625 76.8603 22.1562 76.2249 22.1562C75.3759 22.1562 74.7092 21.9375 74.2249 21.5C73.7457 21.0625 73.5061 20.4401 73.5061 19.6328C73.5061 17.9036 74.8889 16.9974 77.6545 16.9141L79.1077 16.8672V16.3359C79.1077 15.6641 78.9618 15.1693 78.6702 14.8516C78.3837 14.5286 77.9228 14.3672 77.2874 14.3672C76.5738 14.3672 75.7665 14.5859 74.8655 15.0234L74.467 14.0312C74.8889 13.8021 75.3499 13.6224 75.8499 13.4922C76.3551 13.362 76.8603 13.2969 77.3655 13.2969C78.3863 13.2969 79.1415 13.5234 79.6311 13.9766C80.1259 14.4297 80.3733 15.1562 80.3733 16.1562V22H79.4124ZM76.4827 21.0859C77.29 21.0859 77.9228 20.8646 78.3811 20.4219C78.8446 19.9792 79.0764 19.3594 79.0764 18.5625V17.7891L77.7795 17.8438C76.7483 17.8802 76.0035 18.0417 75.5452 18.3281C75.092 18.6094 74.8655 19.0495 74.8655 19.6484C74.8655 20.1172 75.0061 20.474 75.2874 20.7188C75.5738 20.9635 75.9722 21.0859 76.4827 21.0859ZM86.9592 13.2812C87.3394 13.2812 87.6806 13.3125 87.9827 13.375L87.803 14.5781C87.4488 14.5 87.1363 14.4609 86.8655 14.4609C86.1728 14.4609 85.579 14.7422 85.0842 15.3047C84.5946 15.8672 84.3499 16.5677 84.3499 17.4062V22H83.053V13.4375H84.1233L84.2717 15.0234H84.3342C84.6519 14.4661 85.0347 14.0365 85.4827 13.7344C85.9306 13.4323 86.4228 13.2812 86.9592 13.2812ZM96.592 13.4375V14.2578L95.0061 14.4453C95.1519 14.6276 95.2821 14.8672 95.3967 15.1641C95.5113 15.4557 95.5686 15.7865 95.5686 16.1562C95.5686 16.9948 95.2821 17.6641 94.7092 18.1641C94.1363 18.6641 93.3499 18.9141 92.3499 18.9141C92.0946 18.9141 91.8551 18.8932 91.6311 18.8516C91.079 19.1432 90.803 19.5104 90.803 19.9531C90.803 20.1875 90.8993 20.362 91.092 20.4766C91.2847 20.5859 91.6155 20.6406 92.0842 20.6406H93.5999C94.5269 20.6406 95.2379 20.8359 95.7327 21.2266C96.2327 21.6172 96.4827 22.1849 96.4827 22.9297C96.4827 23.8776 96.1025 24.599 95.342 25.0938C94.5816 25.5938 93.4722 25.8438 92.0139 25.8438C90.8941 25.8438 90.0295 25.6354 89.4202 25.2188C88.816 24.8021 88.5139 24.2135 88.5139 23.4531C88.5139 22.9323 88.6806 22.4818 89.0139 22.1016C89.3472 21.7214 89.816 21.4635 90.4202 21.3281C90.2014 21.2292 90.0165 21.0755 89.8655 20.8672C89.7196 20.6589 89.6467 20.4167 89.6467 20.1406C89.6467 19.8281 89.7301 19.5547 89.8967 19.3203C90.0634 19.0859 90.3264 18.8594 90.6858 18.6406C90.2431 18.4583 89.8811 18.1484 89.5999 17.7109C89.3238 17.2734 89.1858 16.7734 89.1858 16.2109C89.1858 15.2734 89.467 14.5521 90.0295 14.0469C90.592 13.5365 91.3889 13.2812 92.4202 13.2812C92.8681 13.2812 93.2717 13.3333 93.6311 13.4375H96.592ZM89.7639 23.4375C89.7639 23.901 89.9592 24.2526 90.3499 24.4922C90.7405 24.7318 91.3004 24.8516 92.0295 24.8516C93.1181 24.8516 93.9228 24.6875 94.4436 24.3594C94.9696 24.0365 95.2327 23.5964 95.2327 23.0391C95.2327 22.5755 95.0894 22.2526 94.803 22.0703C94.5165 21.8932 93.9775 21.8047 93.1858 21.8047H91.6311C91.0426 21.8047 90.5842 21.9453 90.2561 22.2266C89.928 22.5078 89.7639 22.9115 89.7639 23.4375ZM90.467 16.1797C90.467 16.7786 90.6363 17.2318 90.9749 17.5391C91.3134 17.8464 91.7847 18 92.3889 18C93.6545 18 94.2874 17.3854 94.2874 16.1562C94.2874 14.8698 93.6467 14.2266 92.3655 14.2266C91.7561 14.2266 91.2874 14.3906 90.9592 14.7188C90.6311 15.0469 90.467 15.5339 90.467 16.1797ZM101.967 22.1562C100.701 22.1562 99.7014 21.7708 98.967 21C98.2379 20.2292 97.8733 19.1589 97.8733 17.7891C97.8733 16.4089 98.2118 15.3125 98.8889 14.5C99.5712 13.6875 100.485 13.2812 101.631 13.2812C102.704 13.2812 103.553 13.6354 104.178 14.3438C104.803 15.0469 105.115 15.9766 105.115 17.1328V17.9531H99.217C99.2431 18.9583 99.4957 19.7214 99.9749 20.2422C100.459 20.763 101.139 21.0234 102.014 21.0234C102.936 21.0234 103.847 20.8307 104.748 20.4453V21.6016C104.29 21.7995 103.855 21.9401 103.444 22.0234C103.037 22.112 102.545 22.1562 101.967 22.1562ZM101.615 14.3672C100.928 14.3672 100.378 14.5911 99.967 15.0391C99.5608 15.487 99.3212 16.1068 99.2483 16.8984H103.725C103.725 16.0807 103.543 15.4557 103.178 15.0234C102.813 14.5859 102.293 14.3672 101.615 14.3672ZM111.24 13.2812C111.621 13.2812 111.962 13.3125 112.264 13.375L112.084 14.5781C111.73 14.5 111.418 14.4609 111.147 14.4609C110.454 14.4609 109.86 14.7422 109.365 15.3047C108.876 15.8672 108.631 16.5677 108.631 17.4062V22H107.334V13.4375H108.405L108.553 15.0234H108.615C108.933 14.4661 109.316 14.0365 109.764 13.7344C110.212 13.4323 110.704 13.2812 111.24 13.2812ZM120.787 21.0859C121.017 21.0859 121.238 21.0703 121.451 21.0391C121.665 21.0026 121.834 20.9661 121.959 20.9297V21.9219C121.819 21.9896 121.61 22.0443 121.334 22.0859C121.063 22.1328 120.819 22.1562 120.6 22.1562C118.944 22.1562 118.115 21.2839 118.115 19.5391V14.4453H116.889V13.8203L118.115 13.2812L118.662 11.4531H119.412V13.4375H121.897V14.4453H119.412V19.4844C119.412 20 119.535 20.3958 119.78 20.6719C120.024 20.9479 120.36 21.0859 120.787 21.0859ZM129.537 22V16.4609C129.537 15.763 129.378 15.2422 129.061 14.8984C128.743 14.5547 128.246 14.3828 127.569 14.3828C126.668 14.3828 126.009 14.6276 125.592 15.1172C125.181 15.6068 124.975 16.4089 124.975 17.5234V22H123.678V9.84375H124.975V13.5234C124.975 13.9661 124.954 14.3333 124.912 14.625H124.99C125.246 14.2135 125.608 13.8906 126.076 13.6562C126.55 13.4167 127.089 13.2969 127.694 13.2969C128.74 13.2969 129.524 13.5469 130.045 14.0469C130.571 14.5417 130.834 15.3307 130.834 16.4141V22H129.537ZM138.772 22L138.514 20.7812H138.451C138.024 21.3177 137.597 21.6823 137.17 21.875C136.748 22.0625 136.22 22.1562 135.584 22.1562C134.735 22.1562 134.069 21.9375 133.584 21.5C133.105 21.0625 132.865 20.4401 132.865 19.6328C132.865 17.9036 134.248 16.9974 137.014 16.9141L138.467 16.8672V16.3359C138.467 15.6641 138.321 15.1693 138.03 14.8516C137.743 14.5286 137.282 14.3672 136.647 14.3672C135.933 14.3672 135.126 14.5859 134.225 15.0234L133.826 14.0312C134.248 13.8021 134.709 13.6224 135.209 13.4922C135.714 13.362 136.22 13.2969 136.725 13.2969C137.746 13.2969 138.501 13.5234 138.99 13.9766C139.485 14.4297 139.733 15.1562 139.733 16.1562V22H138.772ZM135.842 21.0859C136.649 21.0859 137.282 20.8646 137.74 20.4219C138.204 19.9792 138.436 19.3594 138.436 18.5625V17.7891L137.139 17.8438C136.108 17.8802 135.363 18.0417 134.905 18.3281C134.451 18.6094 134.225 19.0495 134.225 19.6484C134.225 20.1172 134.365 20.474 134.647 20.7188C134.933 20.9635 135.332 21.0859 135.842 21.0859ZM148.272 22V16.4609C148.272 15.763 148.113 15.2422 147.795 14.8984C147.477 14.5547 146.98 14.3828 146.303 14.3828C145.407 14.3828 144.751 14.625 144.334 15.1094C143.918 15.5938 143.709 16.3932 143.709 17.5078V22H142.412V13.4375H143.467L143.678 14.6094H143.74C144.006 14.1875 144.378 13.862 144.858 13.6328C145.337 13.3984 145.871 13.2812 146.459 13.2812C147.49 13.2812 148.267 13.5312 148.787 14.0312C149.308 14.526 149.569 15.3203 149.569 16.4141V22H148.272ZM159.373 15.0234C160.576 15.0234 161.522 15.3229 162.209 15.9219C162.902 16.5156 163.248 17.3307 163.248 18.3672C163.248 19.5495 162.871 20.4766 162.115 21.1484C161.365 21.8203 160.329 22.1562 159.006 22.1562C157.72 22.1562 156.738 21.9505 156.061 21.5391V20.2891C156.425 20.5234 156.878 20.7083 157.42 20.8438C157.962 20.974 158.496 21.0391 159.022 21.0391C159.938 21.0391 160.649 20.8229 161.155 20.3906C161.665 19.9583 161.92 19.3333 161.92 18.5156C161.92 16.9219 160.944 16.125 158.99 16.125C158.496 16.125 157.834 16.2005 157.006 16.3516L156.334 15.9219L156.764 10.5781H162.444V11.7734H157.873L157.584 15.2031C158.183 15.0833 158.78 15.0234 159.373 15.0234ZM172.53 16.2734C172.53 18.2474 172.217 19.7214 171.592 20.6953C170.972 21.6693 170.022 22.1562 168.74 22.1562C167.511 22.1562 166.576 21.6589 165.936 20.6641C165.295 19.6641 164.975 18.2005 164.975 16.2734C164.975 14.2839 165.285 12.8073 165.905 11.8438C166.524 10.8802 167.47 10.3984 168.74 10.3984C169.98 10.3984 170.92 10.901 171.561 11.9062C172.207 12.9115 172.53 14.3672 172.53 16.2734ZM166.287 16.2734C166.287 17.9349 166.483 19.1458 166.873 19.9062C167.264 20.6615 167.886 21.0391 168.74 21.0391C169.605 21.0391 170.23 20.6562 170.615 19.8906C171.006 19.1198 171.201 17.9141 171.201 16.2734C171.201 14.6328 171.006 13.4323 170.615 12.6719C170.23 11.9062 169.605 11.5234 168.74 11.5234C167.886 11.5234 167.264 11.901 166.873 12.6562C166.483 13.4062 166.287 14.612 166.287 16.2734Z" fill="#A94442"/>
</svg>
